<svg xmlns="http://www.w3.org/2000/svg" width="1920" height="1080" viewBox="0 0 1920 1080"><rect width="1920" height="1080" fill="#091827"/><text x="80" y="60" fill="#61ded0" font-size="27" font-family="Segoe UI,Arial">DOLMARIO / ELEKTROTECHNIK</text><text x="1600" y="60" fill="#eef5ff" font-size="29" font-family="Segoe UI,Arial">6/10 · 21/42</text><text x="80" y="140" fill="#eef5ff" font-size="55" font-family="Segoe UI,Arial">Ein Strompfad, derselbe Strom</text><g transform="translate(80,240) scale(0.96)"><path d="M170,250 L170,405" stroke="#61ded0" stroke-width="7" fill="none"/><path d="M170,535 L170,690" stroke="#61ded0" stroke-width="7" fill="none"/><circle cx="170" cy="470" r="65" fill="#142b41" stroke="#eef5ff" stroke-width="6"/><text x="155" y="455" fill="#eef5ff" font-size="35" font-family="Segoe UI,Arial">+</text><text x="158" y="512" fill="#eef5ff" font-size="35" font-family="Segoe UI,Arial">−</text><text x="95" y="760" fill="#eef5ff" font-size="35" font-family="Segoe UI,Arial">5 V DC</text><path d="M170,250 L540,250" stroke="#61ded0" stroke-width="7" fill="none"/><path d="M170,690 L540,690" stroke="#61ded0" stroke-width="7" fill="none"/><path d="M540,250 V285 M540,405 V535 M540,655 V690" fill="none" stroke="#61ded0" stroke-width="7"/><rect x="508" y="285" width="64" height="120" fill="#142b41" stroke="#fff" stroke-width="6"/><text x="600" y="357" fill="#eef5ff" font-size="33" font-family="Segoe UI,Arial">R1 = 1 kΩ</text><rect x="508" y="535" width="64" height="120" fill="#142b41" stroke="#fff" stroke-width="6"/><text x="600" y="607" fill="#eef5ff" font-size="33" font-family="Segoe UI,Arial">R2 = 2,2 kΩ</text><circle cx="540" cy="470" r="10" fill="#ffd06c"/><text x="280" y="450" fill="#eef5ff" font-size="35" font-family="Segoe UI,Arial">I →</text></g><path d="M1180 290 V900" stroke="#294557" stroke-width="3"/><text x="1240" y="380" fill="#ffd06c" font-size="34" font-family="Segoe UI,Arial">Rtotal = 3,2 kΩ</text><text x="1240" y="530" fill="#eef5ff" font-size="34" font-family="Segoe UI,Arial">I = 1,5625 mA</text><text x="1240" y="680" fill="#eef5ff" font-size="34" font-family="Segoe UI,Arial">I1 = I2</text><text x="80" y="1040" fill="#9bb2c7" font-size="24" font-family="Segoe UI,Arial">Eigene Erklärgrafik · Sollrechnung / Versuchsentwurf · keine gemessenen Werte</text></svg>