<svg xmlns="http://www.w3.org/2000/svg" width="1920" height="1080" viewBox="0 0 1920 1080"><rect width="1920" height="1080" fill="#091827"/><text x="80" y="60" fill="#61ded0" font-size="27" font-family="Segoe UI,Arial">DOLMARIO / ELEKTROTECHNIK</text><text x="1600" y="60" fill="#eef5ff" font-size="29" font-family="Segoe UI,Arial">9/10 · 38/42</text><text x="80" y="140" fill="#eef5ff" font-size="55" font-family="Segoe UI,Arial">NTC: Der Widerstand wird kleiner</text><g transform="translate(80,240) scale(0.96)"><path d="M150,640 L970,640" stroke="#61ded0" stroke-width="7" fill="none"/><path d="M150,640 L150,120" stroke="#61ded0" stroke-width="7" fill="none"/><path d="M250.00,200.00 L280.00,219.19 L310.00,237.42 L340.00,254.75 L370.00,271.22 L400.00,286.89 L430.00,301.80 L460.00,315.99 L490.00,329.49 L520.00,342.35 L550.00,354.60 L580.00,366.27 L610.00,377.39 L640.00,387.99 L670.00,398.10 L700.00,407.75 L730.00,416.95 L760.00,425.73 L790.00,434.11 L820.00,442.12 L850.00,449.77" stroke="#ffd06c" stroke-width="8" fill="none"/><text x="80" y="90" fill="#eef5ff" font-size="34" font-family="Segoe UI,Arial">R / kΩ</text><text x="760" y="740" fill="#eef5ff" font-size="34" font-family="Segoe UI,Arial">T / °C</text><circle cx="250" cy="200.0" r="10" fill="#ffd06c"/><text x="185" y="165.0" fill="#eef5ff" font-size="30" font-family="Segoe UI,Arial">10,00 kΩ</text><text x="230" y="685" fill="#eef5ff" font-size="29" font-family="Segoe UI,Arial">25</text><circle cx="550" cy="354.5966013146204" r="10" fill="#ffd06c"/><text x="485" y="319.5966013146204" fill="#eef5ff" font-size="30" font-family="Segoe UI,Arial">6,49 kΩ</text><text x="530" y="685" fill="#eef5ff" font-size="29" font-family="Segoe UI,Arial">35</text><circle cx="850" cy="449.7680223129296" r="10" fill="#ffd06c"/><text x="785" y="414.7680223129296" fill="#eef5ff" font-size="30" font-family="Segoe UI,Arial">4,32 kΩ</text><text x="830" y="685" fill="#eef5ff" font-size="29" font-family="Segoe UI,Arial">45</text><text x="90" y="650" fill="#eef5ff" font-size="29" font-family="Segoe UI,Arial">0</text><text x="90" y="430" fill="#eef5ff" font-size="29" font-family="Segoe UI,Arial">5</text><text x="90" y="210" fill="#eef5ff" font-size="29" font-family="Segoe UI,Arial">10</text></g><path d="M1180 290 V900" stroke="#294557" stroke-width="3"/><text x="1240" y="380" fill="#ffd06c" font-size="34" font-family="Segoe UI,Arial">R25 = 10 kΩ</text><text x="1240" y="530" fill="#eef5ff" font-size="34" font-family="Segoe UI,Arial">B = 3977 K</text><text x="1240" y="680" fill="#eef5ff" font-size="34" font-family="Segoe UI,Arial">T in Kelvin</text><text x="80" y="1040" fill="#9bb2c7" font-size="24" font-family="Segoe UI,Arial">Eigene Erklärgrafik · Sollrechnung / Versuchsentwurf · keine gemessenen Werte</text></svg>